<svg xmlns="http://www.w3.org/2000/svg" viewBox="0 0 200 200" fill="none">
  <rect x="10" y="30" width="180" height="140" rx="12" fill="#1e293b"/>
  <rect x="10" y="30" width="180" height="24" rx="12" fill="#334155"/>
  <circle cx="28" cy="42" r="5" fill="#ef4444"/>
  <circle cx="46" cy="42" r="5" fill="#eab308"/>
  <circle cx="64" cy="42" r="5" fill="#22c55e"/>
  <text x="24" y="84" font-family="monospace" font-size="13" fill="#c084fc">&lt;</text>
  <text x="36" y="84" font-family="monospace" font-size="13" fill="#60a5fa">div</text>
  <text x="63" y="84" font-family="monospace" font-size="13" fill="#f472b6">className</text>
  <text x="130" y="84" font-family="monospace" font-size="13" fill="#a1a1aa">=</text>
  <text x="140" y="84" font-family="monospace" font-size="13" fill="#4ade80">"app"</text>
  <text x="166" y="84" font-family="monospace" font-size="13" fill="#c084fc">&gt;</text>
  <text x="36" y="106" font-family="monospace" font-size="13" fill="#c084fc">&lt;</text>
  <text x="48" y="106" font-family="monospace" font-size="13" fill="#60a5fa">h1</text>
  <text x="63" y="106" font-family="monospace" font-size="13" fill="#c084fc">&gt;</text>
  <text x="76" y="106" font-family="monospace" font-size="13" fill="#facc15">Hello World</text>
  <text x="148" y="106" font-family="monospace" font-size="13" fill="#c084fc">&lt;/</text>
  <text x="160" y="106" font-family="monospace" font-size="13" fill="#60a5fa">h1</text>
  <text x="175" y="106" font-family="monospace" font-size="13" fill="#c084fc">&gt;</text>
  <text x="36" y="128" font-family="monospace" font-size="13" fill="#c084fc">&lt;</text>
  <text x="48" y="128" font-family="monospace" font-size="13" fill="#60a5fa">p</text>
  <text x="57" y="128" font-family="monospace" font-size="13" fill="#c084fc">&gt;</text>
  <text x="70" y="128" font-family="monospace" font-size="13" fill="#facc15">const</text>
  <text x="105" y="128" font-family="monospace" font-size="13" fill="#22d3ee">app</text>
  <text x="125" y="128" font-family="monospace" font-size="13" fill="#a1a1aa">=</text>
  <text x="135" y="128" font-family="monospace" font-size="13" fill="#4ade80">"next"</text>
  <text x="166" y="128" font-family="monospace" font-size="13" fill="#c084fc">&lt;/</text>
  <text x="178" y="128" font-family="monospace" font-size="13" fill="#60a5fa">p</text>
  <text x="181" y="128" font-family="monospace" font-size="13" fill="#c084fc">&gt;</text>
  <text x="24" y="150" font-family="monospace" font-size="13" fill="#c084fc">&lt;/</text>
  <text x="36" y="150" font-family="monospace" font-size="13" fill="#60a5fa">div</text>
  <text x="63" y="150" font-family="monospace" font-size="13" fill="#c084fc">&gt;</text>
</svg>
